<svg width="48" height="48" viewBox="0 0 48 48" fill="none" xmlns="http://www.w3.org/2000/svg">
<g filter="url(#filter0_d_220_1316)">
<circle cx="24" cy="22" r="21" fill="white"/>
</g>
<path d="M32.2857 32.8C32.2857 32.8 28.245 31.96 24.1557 31.96C19.9662 31.96 15.7257 32.8 15.7257 32.8C15.0567 32.7937 14.417 32.5241 13.9454 32.0496C13.4737 31.5751 13.208 30.9338 13.2057 30.2648V13.718C13.2086 13.0507 13.4751 12.4116 13.9471 11.94C14.4191 11.4684 15.0584 11.2024 15.7257 11.2C15.7257 11.2 19.9869 12.1625 24.1857 12.1651C28.2634 12.1675 32.2824 11.2107 32.2824 11.2107C32.9476 11.211 33.5854 11.4752 34.056 11.9453C34.5266 12.4153 34.7916 13.0528 34.7927 13.718V30.2648C34.7934 30.9325 34.5304 31.5735 34.0609 32.0483C33.5914 32.523 32.9534 32.7932 32.2857 32.8ZM33.6057 24.52V13.72C33.6057 13.075 32.9315 12.4 32.2857 12.4C32.2857 12.4 28.3042 13.2601 24.2457 13.2601C20.0272 13.2601 15.7257 12.4 15.7257 12.4C15.0798 12.4 14.2857 13.075 14.2857 13.72L14.3831 27.1712L17.8857 23.9528C17.9994 23.8483 18.1458 23.7864 18.2999 23.7774C18.4541 23.7683 18.6067 23.8128 18.7318 23.9033L22.5458 26.6633L28.0427 21.0105C28.105 20.9464 28.1795 20.8955 28.2618 20.8607C28.344 20.8259 28.4324 20.8078 28.5218 20.8077H28.5231C28.6122 20.8077 28.7004 20.8255 28.7826 20.86C28.8648 20.8945 28.9393 20.9451 29.0016 21.0087L33.6057 25.708V24.52ZM33.6057 27.61C33.5869 27.596 33.569 27.581 33.5518 27.5651L28.5249 22.4344L23.1027 28.0105C22.9905 28.1258 22.8405 28.1969 22.6802 28.2108C22.5199 28.2247 22.3599 28.1804 22.2296 28.0861L18.3896 25.3072L14.4214 28.9534C14.4135 28.9607 14.4044 28.9654 14.3962 28.9725L14.4057 30.28C14.4057 30.925 15.0798 31.6 15.7257 31.6C15.7257 31.6 19.7861 30.86 23.8857 30.86C28.0653 30.86 32.2857 31.6 32.2857 31.6C32.9315 31.6 33.6057 30.925 33.6057 30.28V27.61ZM31.0212 28.12C30.9321 28.1201 30.8438 28.1024 30.7617 28.0679C30.6795 28.0334 30.605 27.9827 30.5427 27.919L30.2967 27.668C30.1726 27.541 30.1039 27.37 30.1059 27.1925C30.1079 27.015 30.1803 26.8455 30.3072 26.7214C30.4342 26.5973 30.6052 26.5287 30.7827 26.5307C30.9602 26.5326 31.1297 26.6051 31.2538 26.732L31.4998 26.9829C31.5921 27.077 31.6545 27.1963 31.6792 27.3258C31.7039 27.4552 31.6898 27.5891 31.6387 27.7106C31.5875 27.8321 31.5017 27.9357 31.3918 28.0086C31.282 28.0814 31.1531 28.1202 31.0212 28.12ZM29.0337 26.3117L28.5476 25.8155L26.1526 28.2785C26.0285 28.4033 25.8602 28.4741 25.6842 28.4757C25.5082 28.4772 25.3386 28.4094 25.2123 28.2869C25.0859 28.1643 25.013 27.997 25.0091 27.821C25.0053 27.645 25.071 27.4746 25.1919 27.3467L28.0655 24.3917C28.1278 24.3277 28.2022 24.2767 28.2845 24.2419C28.3667 24.207 28.4551 24.189 28.5444 24.1888H28.5458C28.6349 24.1888 28.7231 24.2066 28.8053 24.2411C28.8875 24.2756 28.9619 24.3262 29.0243 24.3898L29.9907 25.3762C30.0521 25.4391 30.1006 25.5134 30.1333 25.5949C30.166 25.6765 30.1823 25.7637 30.1813 25.8516C30.1803 25.9394 30.162 26.0262 30.1275 26.107C30.0929 26.1878 30.0428 26.261 29.9799 26.3225C29.9171 26.3839 29.8428 26.4323 29.7612 26.4651C29.6797 26.4978 29.5925 26.5141 29.5046 26.5131C29.4167 26.5121 29.3299 26.4938 29.2491 26.4592C29.1683 26.4247 29.0951 26.3746 29.0337 26.3117ZM30.257 13.84C30.4448 13.8398 30.6285 13.8954 30.7848 13.9996C30.9411 14.1038 31.063 14.2521 31.135 14.4256C31.2071 14.5991 31.226 14.7901 31.1895 14.9743C31.153 15.1586 31.0626 15.3279 30.9298 15.4608C30.7971 15.5938 30.6279 15.6843 30.4436 15.721C30.2594 15.7578 30.0684 15.739 29.8948 15.6672C29.7212 15.5954 29.5728 15.4737 29.4684 15.3175C29.364 15.1613 29.3083 14.9777 29.3083 14.7898C29.3076 14.665 29.3318 14.5413 29.3792 14.4259C29.4267 14.3104 29.4965 14.2055 29.5847 14.1172C29.6729 14.0289 29.7777 13.959 29.8931 13.9114C30.0085 13.8638 30.1322 13.8396 30.257 13.84ZM30.257 15.1064C30.2999 15.1125 30.3438 15.1085 30.3849 15.0947C30.4261 15.081 30.4635 15.0578 30.4942 15.0271C30.5249 14.9964 30.548 14.959 30.5617 14.9178C30.5754 14.8766 30.5793 14.8328 30.5732 14.7898C30.5794 14.7468 30.5755 14.703 30.5618 14.6618C30.5481 14.6206 30.525 14.5831 30.4943 14.5524C30.4636 14.5216 30.4262 14.4985 30.385 14.4847C30.3438 14.471 30.3 14.467 30.257 14.4731C30.1746 14.478 30.0969 14.5129 30.0386 14.5713C29.9803 14.6297 29.9454 14.7074 29.9406 14.7898C29.9345 14.8328 29.9384 14.8766 29.9522 14.9178C29.9659 14.959 29.989 14.9964 30.0197 15.0272C30.0504 15.0579 30.0878 15.081 30.129 15.0948C30.1702 15.1085 30.214 15.1125 30.257 15.1064ZM26.3872 20.68C25.333 20.68 24.4898 20.0468 24.4898 18.886V16.3533C24.4898 15.1925 25.4385 14.5594 26.3872 14.5594C27.3359 14.5594 28.1793 15.1925 28.1793 16.3534V18.8859C28.1793 20.0468 27.3359 20.68 26.3872 20.68ZM27.1257 16.3533C27.1257 15.8253 26.8094 15.5091 26.3877 15.5091C25.966 15.5091 25.6497 15.8257 25.6497 16.3533V18.8859C25.6497 19.4139 25.966 19.7301 26.3877 19.7301C26.8094 19.7301 27.1257 19.4135 27.1257 18.8859V16.3533ZM22.0652 20.68C21.011 20.68 20.1676 19.9413 20.1676 18.7804C20.1676 18.2524 20.3784 17.7251 20.6948 17.1975L21.9598 14.5593H23.2248L21.9598 17.092C22.0652 16.9864 22.276 16.9864 22.3815 16.9864C23.2248 16.9864 23.9627 17.6197 23.9627 18.7804C23.9627 19.9412 23.1192 20.68 22.0652 20.68ZM22.0652 17.9362C21.538 17.9362 21.2218 18.2529 21.3272 18.7804C21.3272 19.3084 21.6434 19.6246 22.0652 19.6246C22.487 19.6246 22.803 19.3081 22.803 18.7804C22.803 18.2528 22.4868 17.9362 22.0652 17.9362ZM19.6412 18.886C19.6407 20.0468 18.7977 20.68 17.7431 20.68C16.7944 20.68 15.8457 20.152 15.8457 18.8859H16.8999C16.8999 19.4139 17.3216 19.6246 17.7431 19.6246C18.2703 19.6246 18.5865 19.3081 18.5865 18.7804C18.5865 18.2528 18.2703 17.9362 17.7431 17.9362H17.5323V16.9864H17.8485C18.3756 16.9864 18.5865 16.6699 18.5865 16.2478C18.5865 15.7198 18.2703 15.5091 17.8485 15.5091C17.7509 15.5068 17.6538 15.5243 17.5632 15.5606C17.4726 15.5969 17.3903 15.6513 17.3213 15.7203C17.2523 15.7894 17.198 15.8718 17.1618 15.9625C17.1256 16.0531 17.1082 16.1502 17.1106 16.2478H16.0565C16.0565 15.1925 16.7944 14.5594 17.8485 14.5594C18.9026 14.5594 19.6406 15.1925 19.6406 16.2478C19.6406 16.8811 19.3242 17.3031 18.9027 17.5142C19.3244 17.7251 19.6407 18.1472 19.6407 18.8859L19.6412 18.886Z" fill="black"/>
<defs>
<filter id="filter0_d_220_1316" x="0" y="0" width="48" height="48" filterUnits="userSpaceOnUse" color-interpolation-filters="sRGB">
<feFlood flood-opacity="0" result="BackgroundImageFix"/>
<feColorMatrix in="SourceAlpha" type="matrix" values="0 0 0 0 0 0 0 0 0 0 0 0 0 0 0 0 0 0 127 0" result="hardAlpha"/>
<feMorphology radius="1" operator="dilate" in="SourceAlpha" result="effect1_dropShadow_220_1316"/>
<feOffset dy="2"/>
<feGaussianBlur stdDeviation="1"/>
<feComposite in2="hardAlpha" operator="out"/>
<feColorMatrix type="matrix" values="0 0 0 0 0 0 0 0 0 0 0 0 0 0 0 0 0 0 0.25 0"/>
<feBlend mode="normal" in2="BackgroundImageFix" result="effect1_dropShadow_220_1316"/>
<feBlend mode="normal" in="SourceGraphic" in2="effect1_dropShadow_220_1316" result="shape"/>
</filter>
</defs>
</svg>
