<svg width="36" height="36" viewBox="0 0 36 36" fill="none" xmlns="http://www.w3.org/2000/svg">
<rect width="36" height="36" rx="8" fill="white"/>
<path d="M23.25 17.25H14.355L17.0775 13.98C17.2048 13.8268 17.2661 13.6293 17.2478 13.431C17.2295 13.2327 17.1332 13.0498 16.98 12.9225C16.8268 12.7952 16.6294 12.7339 16.4311 12.7522C16.2327 12.7705 16.0498 12.8668 15.9225 13.02L12.1725 17.52C12.1473 17.5558 12.1247 17.5934 12.105 17.6325C12.105 17.67 12.105 17.6925 12.0525 17.73C12.0185 17.816 12.0007 17.9075 12 18C12.0007 18.0924 12.0185 18.184 12.0525 18.27C12.0525 18.3075 12.0525 18.33 12.105 18.3675C12.1247 18.4066 12.1473 18.4442 12.1725 18.48L15.9225 22.98C15.993 23.0646 16.0813 23.1327 16.1811 23.1794C16.2809 23.226 16.3898 23.2501 16.5 23.25C16.6752 23.2503 16.8451 23.1893 16.98 23.0775C17.0559 23.0145 17.1187 22.9372 17.1647 22.8499C17.2107 22.7627 17.2391 22.6672 17.2482 22.5689C17.2572 22.4707 17.2468 22.3717 17.2175 22.2775C17.1882 22.1832 17.1407 22.0957 17.0775 22.02L14.355 18.75H23.25C23.4489 18.75 23.6397 18.6709 23.7803 18.5303C23.921 18.3896 24 18.1989 24 18C24 17.8011 23.921 17.6103 23.7803 17.4696C23.6397 17.329 23.4489 17.25 23.25 17.25Z" fill="black"/>
</svg>
