<svg width="10" height="13" viewBox="0 0 10 13" fill="none" xmlns="http://www.w3.org/2000/svg">
<path d="M4.99998 12.875C4.15794 12.1119 3.37744 11.2753 2.66665 10.3739C1.59998 9.0203 0.333314 7.00438 0.333314 5.08338C0.332851 4.10231 0.606319 3.14314 1.11911 2.32727C1.6319 1.5114 2.36096 0.875495 3.21403 0.500035C4.06709 0.124575 5.00581 0.0264378 5.91139 0.218043C6.81697 0.409648 7.6487 0.882383 8.30131 1.57642C8.73582 2.03603 9.08021 2.58263 9.31457 3.1846C9.54893 3.78657 9.6686 4.43195 9.66665 5.08338C9.66665 7.00438 8.39998 9.0203 7.33331 10.3739C6.62252 11.2753 5.84202 12.1119 4.99998 12.875ZM4.99998 2.95838C4.46955 2.95838 3.96084 3.18226 3.58577 3.58078C3.21069 3.97929 2.99998 4.51979 2.99998 5.08338C2.99998 5.64696 3.21069 6.18747 3.58577 6.58598C3.96084 6.9845 4.46955 7.20838 4.99998 7.20838C5.53041 7.20838 6.03912 6.9845 6.41419 6.58598C6.78927 6.18747 6.99998 5.64696 6.99998 5.08338C6.99998 4.51979 6.78927 3.97929 6.41419 3.58078C6.03912 3.18226 5.53041 2.95838 4.99998 2.95838Z" fill="#73A1EA"/>
</svg>
