<svg id="图层_1" data-name="图层 1" xmlns="http://www.w3.org/2000/svg" xmlns:xlink="http://www.w3.org/1999/xlink" viewBox="0 0 390 844"><defs><style>.cls-1,.cls-16,.cls-19,.cls-20,.cls-21,.cls-22,.cls-23,.cls-24,.cls-25,.cls-26,.cls-27,.cls-28,.cls-29,.cls-30,.cls-31,.cls-32,.cls-33,.cls-4{fill:none;}.cls-2{clip-path:url(#clip-path);}.cls-3{opacity:0.34;}.cls-4{stroke:#0e5500;}.cls-5{clip-path:url(#clip-path-2);}.cls-6{fill:#f2efe9;}.cls-7{fill:#ffffe5;stroke:#ffff32;}.cls-7,.cls-9{stroke-width:0.3px;}.cls-10,.cls-11,.cls-12,.cls-13,.cls-14,.cls-15,.cls-17,.cls-18,.cls-7,.cls-8,.cls-9{fill-rule:evenodd;}.cls-8{fill:#ebdbe8;}.cls-9{fill:#dffce2;stroke:#3ced4a;}.cls-10{fill:#add19e;}.cls-11{fill:#aae0cb;}.cls-12{fill:#c8facc;}.cls-13{fill:#eee;}.cls-14{fill:#cdebb0;}.cls-15{fill:url(#SVGID_5_);}.cls-16{stroke:#aad3df;}.cls-16,.cls-20,.cls-21,.cls-22,.cls-23,.cls-24,.cls-25,.cls-26,.cls-27,.cls-28,.cls-29,.cls-32,.cls-33{stroke-linecap:round;}.cls-16,.cls-20,.cls-21,.cls-22,.cls-23,.cls-24,.cls-25,.cls-26,.cls-27,.cls-28,.cls-29,.cls-30,.cls-31,.cls-32,.cls-33{stroke-linejoin:round;}.cls-16,.cls-23,.cls-24,.cls-25,.cls-31{stroke-width:5px;}.cls-17{fill:#aad3df;}.cls-18{fill:#d1c6bd;}.cls-19,.cls-21,.cls-22{stroke:#bbb;}.cls-19,.cls-22,.cls-30{stroke-width:2px;}.cls-19{stroke-dasharray:4 2;}.cls-20,.cls-32{stroke:#ddd;}.cls-20{stroke-width:0.9px;}.cls-21{stroke-width:3px;}.cls-23{stroke:#8f8f8f;}.cls-24{stroke:#707d05;}.cls-25{stroke:#a06b00;}.cls-26,.cls-27{stroke:#fff;}.cls-26{stroke-width:1.9px;}.cls-27{stroke-width:3.9px;}.cls-28,.cls-33{stroke:#f7fabf;}.cls-28{stroke-width:4.3px;}.cls-29{stroke:#fcd6a4;stroke-width:4px;}.cls-30,.cls-31{stroke:#000;}.cls-33{stroke-width:3.8px;}</style><clipPath id="clip-path"><rect class="cls-1" width="30" height="30"/></clipPath><clipPath id="clip-path-2"><rect class="cls-1" width="390" height="844"/></clipPath><pattern id="SVGID_5_" data-name="SVGID 5 " width="30" height="30" patternTransform="translate(-11.36 16492.76)" patternUnits="userSpaceOnUse" viewBox="0 0 30 30"><rect class="cls-1" width="30" height="30"/><rect class="cls-1" width="30" height="30"/><g class="cls-2"><g id="surface5"><g class="cls-3"><path d="M1,2.5H2m5,0H8m5,0h1m5,0h1m5,0h1M4,7.5H5m5,0h1m5,0h1m5,0h1m5,0h1m-28,5H2m5,0H8m5,0h1m5,0h1m5,0h1m-22,5H5m5,0h1m5,0h1m5,0h1m5,0h1m-28,5H2m5,0H8m5,0h1m5,0h1m5,0h1m-22,5H5m5,0h1m5,0h1m5,0h1m5,0h1"/></g><g class="cls-3"><path class="cls-4" d="M1,2.5H2m5,0H8m5,0h1m5,0h1m5,0h1M4,7.5H5m5,0h1m5,0h1m5,0h1m5,0h1m-28,5H2m5,0H8m5,0h1m5,0h1m5,0h1m-22,5H5m5,0h1m5,0h1m5,0h1m5,0h1m-28,5H2m5,0H8m5,0h1m5,0h1m5,0h1m-22,5H5m5,0h1m5,0h1m5,0h1m5,0h1"/></g></g></g></pattern></defs><g class="cls-5"><rect class="cls-6" x="98.55" y="437.25" width="35.84" height="847.4" transform="translate(-743.5 737.43) rotate(-74.12)"/><polyline class="cls-6" points="655.17 565.53 787.29 101.06 -27.78 -130.78 -273.44 732.88 541.63 964.72 655.17 565.53"/><path class="cls-7" d="M438.18,530.07l0-28.85-29.93.24L400.6,327.31,81.68,333.4,19,334.63l-5.79.42v7.21l1.56,56.05,8.3-.21,14.56-.49-.1,29.32-15.17.83-6.26.28.08,8.78,1,25.51,54.63-2,.76,10,4.22-.35-1.15,65.58Z"/><path class="cls-7" d="M270.39,269.16l-1.1-179L269.51,46,41.82,51.74,39.61,198.89,98.46,252.7l-1.21,18.71L83,274.55l-.54,5.51,57.9,1-.31-31.5,3.74-4.09,7.67-7.08,8.92-.56L171,245.54l5.11,12.78L175.78,285l8.77-.08-.63-14.08Z"/><polygon class="cls-8" points="215.79 872.04 214.97 755.44 22.99 756.96 23.34 817.3 215.79 872.04"/><path class="cls-9" d="M388.9,444.47l-.25-93.27-1.77-4.62-3.47,3.13L377.56,345l-4.43-4.35-6.26-3.33-8.37-1.35-6.26.28-9.8,1.85-9.17,8.72L331,349.23l-5.65-.06v3.61l-2.07,94.15,8.09-4.91,8.65,11.22,13.41,5.36,15.17-.84,9.45-6.06,5-6.81Z"/><path class="cls-10" d="M404.22,517.32l-1.63-57.62-8.17-3.87L392.37,445l-3.13.14-5.17.07L379,452,369.59,458l-15.17.84L341,453.51l-8.66-11.22-8.09,4.91.14,3.13.69,8.44,16.74-.91.47,56.26.14,3.13Z"/><path class="cls-11" d="M379.7,431.56l.88-4.9-.62-63-1.57-3.53-22.45-.72L334.38,361l-.68,2.38-.06,65.38,1.57,3.53,21,.32Z"/><path class="cls-10" d="M182.29,388.8l.63-49.26L137.2,341l.81,49.66Z"/><path class="cls-11" d="M318.53,420.34l-.21-60.82-35.24.79,1,60Z"/><path class="cls-12" d="M234.34,392.27l.15-49.39-3-3.94-33.2.86-3,14.08.09,16,1.5,2,3.13-.14,2.24-2.45h3.61l3.2,1.43,6.18-1.85.12,37.62,7.68.13.4-8.64-.07-5.17Z"/><path class="cls-11" d="M279.14,363.31l.17-24.15-39,1.27.3,24.28Z"/><path class="cls-9" d="M318.38,357.48l-.29-20.68-35.38,1.26.91,20.34Z"/><path class="cls-11" d="M342.31,514.12l-.6-52.18-12,.7.6,52.18Z"/><path class="cls-11" d="M282.82,424.6l-.24-26.33-16,.09-.24,26.19Z"/><path class="cls-13" d="M81.62,339.05l.06-5.65L19,334.63,19,340.28Z"/><path class="cls-14" d="M92.89,440.6l.28-1L93,438.56l-.68-1.22-.82-.75-.95-.27-1-.27-1.09.21-1.23.68-.74.81-.27,1,.2,1.08.21,1.09.68,1.23.81.74,1,.28,1.09-.21,1.08-.21.75-.81Z"/><path class="cls-15" d="M92.89,440.6l.28-1L93,438.56l-.68-1.22-.82-.75-.95-.27-1-.27-1.09.21-1.23.68-.74.81-.27,1,.2,1.08.21,1.09.68,1.23.81.74,1,.28,1.09-.21,1.08-.21.75-.81Z"/><path class="cls-16" d="M454.2,319.9l-259.26,4.52-3.13.14-356.54,6.21"/><path class="cls-17" d="M213.61,405.43l.72-18.85-2.72-1.29L211,382l.95-3.34,2,.07-.34-4.22.26-4.56-3.8,2.52-4.63-1.83-4.08,3.48h-3.6l-2.93-2.38-.15-6.73-.14-10.34,2.84-13.61-2.73-1.29.46-14.29-3.12.14-.81,10.07-.94,6.94-.75,4.42-.67,2.39-.21,2.51-1.15,2.25.41,2.18.44,27.41,1.91.54,1.5,2,.41,2.17-1.9,3.07-1.5,1.63,1.29.88,1.37,2.45,1.23,6.53,1.64,5.1,1.23,2.92,3.2,1.43,1.56-.07-.41-2.18.81-2.86,2.52.21,2,2.1Z"/><path class="cls-18" d="M67.08,525.94l.32-13.81-12.72-.53L32.61,487.82l1.07-14.63-10.21-.33-1.8,26.27.77,17.21,2.25,4.76,6.6,3.93,4.29,1.22,8.77-.08Z"/><path class="cls-18" d="M128.6,488.86l-.9-13.13L116.8,467l-25.24,0-.32,13.81-2.45,1.36,1,18.3,27.35,1.6,5.78-4Z"/><path class="cls-18" d="M200.89,468.23l1.21-11.5-5.24-1.49-38.23.46-6.74.14-1.08,3.81-5.58,1.51-3.39,4.69-.4,5,1.29,4.49.35,4.21,3.47.48,10.34-.15-.14-3.13,6.12.2-.41-2.18,1.57-.07.67-6Z"/><path class="cls-18" d="M319.87,464.49l.47-7.08,1.56-.07.2-6.12-2.38-.68-.08-5.17-13.81-.32-.07-1.57-2.65.28L261,445.17l-1.89,6.67.88,2.31,1.16,1.36.75,2.79,11.3.12.06-2,26.19.24-.6,7.55Z"/><path class="cls-18" d="M37.81,397.13l-.07-54.08-15,.35-.07,2-4.69.21.08,8.78,4.56.27.29,17.07-3.74.48.62,6.87h3.6l.09,19.59Z"/><path class="cls-18" d="M281.48,391.26l-.35-15-3.34-4.55L240.85,373l-2,7.15-.75,4.42,1.78,4.62,1.9.55,5.72,1.62Z"/><path class="cls-18" d="M262.27,424.42l-6.33-4.89-6.13-3.81-9.39-3.18-5.38-1-8.77.08-8.84,2.12-14.08,7.84-4.14,5.52,7.35,6.72,9.11-6.67,7.42-2.53,7-1.1,7.08.47,7.62,2.17,5.78,3.19,3.89,2.65Z"/><path class="cls-18" d="M197.31,493.48l1.15-13.07L164.58,480l-1.57.07-.14-3.12-6.12-.2.14,3.13-10.34.15-.6,14.76,12.86.05.07-2Z"/><path class="cls-18" d="M320.23,483.13l-.36-18.64-21-.32.21,8.3-23.67,0,.2-2.52-10.82,0,1.44,7.61,5.31-.55.27,2.66,29.93-.24.35,4.21Z"/><path class="cls-18" d="M251.61,445.59l.26-15.38-42.59,1.28.5,14.55Z"/><path class="cls-18" d="M268.84,287.26l-.76-13.6-45.72,1.41.43,13Z"/><path class="cls-18" d="M132.8,358.24l.19-13.33-41.84.45.08,12.38Z"/><path class="cls-18" d="M318.28,499.05l-.15-6.74-47.89,1.83.41,2.18-2.17.41.41,5.78,4.7-.21-.07,2,41.84-.46-.07-5.17Z"/><path class="cls-18" d="M37.71,426.45l.1-29.32-14.56.49-1.19,29.53Z"/><path class="cls-18" d="M85.92,351.08l.19-9.72-42.72,1.75.9,9.52Z"/><path class="cls-18" d="M133.23,374.84l-.29-9.86L92.4,366.32l.28,9.86Z"/><path class="cls-18" d="M85.19,426.05l-.28-9.86-40.55,1.34.29,9.86Z"/><path class="cls-18" d="M85.16,400.82,84.88,391l-40.55,1.34.29,9.87Z"/><path class="cls-18" d="M134,424.5l-.28-9.86L93.21,416l.28,9.86Z"/><path class="cls-18" d="M133.12,400.55l-.28-9.86-40.07,1.48.42,9.38Z"/><path class="cls-18" d="M85.68,377.28l-.29-9.87-40.54,1.34.28,9.87Z"/><path class="cls-18" d="M217.62,288.14l-.56-12.52-30.82,1.53.7,12Z"/><path class="cls-18" d="M182.31,399.61l-.69-8.43-41,1.2.83,8Z"/><path class="cls-18" d="M183.35,423.08l-.21-8.3-42.38,2.37,1,7.48Z"/><path class="cls-18" d="M258,526.2l-.82-.75-5.72-5.23-3.88-2.65.67-2.38-4-2.18-6.67-1.89-4.08-.13-2-.07-4.22.34-1.57.07-5,1.17-4.15,1.91-1.83,1,.54,1.7L210.88,520l-4.55,3.34-3,3.27.61-.34,3.33-2.66,4.42-2.86,3.81-2.52.68,1.22,8-2.87,2.79-.75,2.66-.27h3.6l2,.07,5.85,1.15,5.45,2.58.27-1,2.59,1.76,5,4,2.31,2.72Z"/><path class="cls-19" d="M233.26,515.54l.2-2.51.2-2.52"/><path class="cls-19" d="M227,515.82l.2-2.51.2-2.52"/><path class="cls-20" d="M233.26,515.54l.2-2.51.2-2.52"/><path class="cls-20" d="M227,515.82l.2-2.51.2-2.52"/><path class="cls-21" d="M219.55,538.42l3.09,199.12L223,902.92"/><path class="cls-21" d="M-258.87,750.42,1.55,747.25l221.09-9.71,209.19,1.32"/><path class="cls-21" d="M-156.32,308.44,1,307.37l167.22-5,11.9-.21,21.77-.51,167.69-4.82,6.12.2,23.54.51"/><path class="cls-22" d="M-.38,437.24l16.87-1.38,6.74-.14,17.07-.29,44.83-.12.49,7.34,4.15,1.7,3.47.47,5.51.54,38.71-.32,60.61-1.29"/><path class="cls-22" d="M197.6,443.61l-4-5.78-2-5.71.74-4.42,4.21-7.56,5.37-2.59,14-5.8,8.84-2.12,11.77.26,10.82,3.59,11,3.12,6.06,5.84.48,3.74,55.92-1.08"/><path class="cls-22" d="M264.55,510.54,257.27,509l-7.15-2-12.93-1.62-4.08-.13-2.51-.2H227l-8.91.55-13.81,3.28-6.12,3.41"/><path class="cls-22" d="M237.06,337.44l-.52,72.45"/><path class="cls-22" d="M323.19,510.74l-.64-21.29.64-34.83-.21-4.69-2.18-3.2.32-21-.93-90.89"/><path class="cls-22" d="M392.85,332.83l-73.13,1.86-82.66,2.75-40.27.38"/><path class="cls-22" d="M40.3,435.43l0-94.22"/><path class="cls-22" d="M137.12,444.43l.34,56.74.95,3.87.28,6.26"/><path class="cls-22" d="M138.56,511.78l-52.18.6L86.19,466l-1-23.47"/><path class="cls-22" d="M137.12,444.43l-.22-8.3-.78-91.36"/><path class="cls-22" d="M197.16,419.8l-6.95-8.16-2.93-6-1.16-5L185,390.08l-.75-51.7"/><path class="cls-22" d="M184.66,315.32,169,316l-.29-13.47"/><path class="cls-22" d="M323.19,510.74l-.26,8.17,84-.31-.36-15"/><path class="cls-22" d="M198.29,511.78l-.15-6.74,1-9,1-5.38,6.07-39.46-8-8"/><path class="cls-22" d="M264.55,510.54l-2.33-9.93-.35-11.43L260,481.43l-2.27-15.58-2.12-16.05,1.35-4.76,3.06-5.31,1.83-4.63,2.91-8.44"/><path class="cls-22" d="M322.69,489l-60.82.21"/><path class="cls-22" d="M323.19,510.74l-58.64-.2"/><path class="cls-22" d="M255,450.14l-10.2,3.28-15.44,1.79-12.72-.53-10.82-3.6"/><path class="cls-22" d="M92.9,444.21l2.38-2.93v-3.6L94,434.75,91.46,433l-3.13.14L88,425.3l-.21-1.09.2-6.12-.56-72.25"/><path class="cls-22" d="M180.15,302.2l.06-9.26-.15-6.73"/><path class="cls-22" d="M180.34,292.47l89.87-2.76"/><path class="cls-21" d="M375.73,297.07,368.28,31.83"/><path class="cls-22" d="M189.1,337.7l-4.69.21"/><path class="cls-22" d="M184.41,337.91,135.7,339l-95.37,2.23-26.94.57-12.59-1"/><path class="cls-22" d="M184.59,321l-.07-5.17,17.21-.77.19-13.34"/><path class="cls-22" d="M226.93,510.65l.19-6.12"/><path class="cls-22" d="M226.76,538.41l.24-22.59"/><path class="cls-22" d="M233.19,510.37l.06-5.64"/><path class="cls-22" d="M232.4,538.47l.73-22.45"/><path class="cls-22" d="M84.52,435.65,87.85,433"/><path class="cls-23" d="M439.71,30.52l-71.43,1.31L318,33-1.46,37.36l-93.27.25"/><path class="cls-24" d="M-2.9-30l1.57,66.87,2.5,270L.84,320.71"/><path class="cls-24" d="M.8,340.78-.38,433.64-1.9,533.1,1.87,729.84l1.47,89"/><path class="cls-25" d="M-240.74,545.49-1.69,541.4l221.24-3h10.81l2,.06,212.8-2.29"/><path class="cls-26" d="M219.55,538.42l3.09,199.12,0,157.56"/><path class="cls-26" d="M-258.87,750.42,1.55,747.25l221.09-9.71,209.19,1.32"/><path class="cls-26" d="M-156.32,308.44,1,307.37l167.22-5,11.9-.21,21.77-.51,167.69-4.82,6.12.2,23.54.51"/><path class="cls-20" d="M-.38,437.24l16.87-1.38,6.74-.14,17.07-.29,44.83-.12.49,7.34,4.15,1.7,3.47.47,5.51.54,38.71-.32,60.61-1.29"/><path class="cls-20" d="M197.6,443.61l-4-5.78-2-5.71.74-4.42,4.21-7.56,5.37-2.59,14-5.8,8.84-2.12,11.77.26,10.82,3.59,11,3.12,6.06,5.84.48,3.74,55.92-1.08"/><path class="cls-20" d="M264.55,510.54,257.27,509l-7.15-2-12.93-1.62-4.08-.13-2.51-.2H227l-8.91.55-13.81,3.28-6.12,3.41"/><path class="cls-20" d="M237.06,337.44l-.52,72.45"/><path class="cls-20" d="M323.19,510.74l-.64-21.29.64-34.83-.21-4.69-2.18-3.2.32-21-.93-90.89"/><path class="cls-20" d="M392.85,332.83l-73.13,1.86-82.66,2.75-40.27.38"/><path class="cls-20" d="M40.3,435.43l0-94.22"/><path class="cls-20" d="M137.12,444.43l.34,56.74.95,3.87.28,6.26"/><path class="cls-20" d="M138.56,511.78l-52.18.6L86.19,466l-1-23.47"/><path class="cls-20" d="M137.12,444.43l-.22-8.3-.78-91.36"/><path class="cls-20" d="M197.16,419.8l-6.95-8.16-2.93-6-1.16-5L185,390.08l-.75-51.7"/><path class="cls-20" d="M184.66,315.32,169,316l-.29-13.47"/><path class="cls-20" d="M323.19,510.74l-.26,8.17,84-.31-.36-15"/><path class="cls-20" d="M198.29,511.78l-.15-6.74,1-9,1-5.38,6.07-39.46-8-8"/><path class="cls-20" d="M264.55,510.54l-2.33-9.93-.35-11.43L260,481.43l-2.27-15.58-2.12-16.05,1.35-4.76,3.06-5.31,1.83-4.63,2.91-8.44"/><path class="cls-20" d="M322.69,489l-60.82.21"/><path class="cls-20" d="M323.19,510.74l-58.64-.2"/><path class="cls-20" d="M255,450.14l-10.2,3.28-15.44,1.79-12.72-.53-10.82-3.6"/><path class="cls-20" d="M92.9,444.21l2.38-2.93v-3.6L94,434.75,91.46,433l-3.13.14L88,425.3l-.21-1.09.2-6.12-.56-72.25"/><path class="cls-20" d="M180.15,302.2l.06-9.26-.15-6.73"/><path class="cls-20" d="M180.34,292.47l89.87-2.76"/><path class="cls-26" d="M375.73,297.07,368.28,31.83"/><path class="cls-20" d="M189.1,337.7l-4.69.21"/><path class="cls-20" d="M184.41,337.91,135.7,339l-95.37,2.23-26.94.57-12.59-1"/><path class="cls-20" d="M184.59,321l-.07-5.17,17.21-.77.19-13.34"/><path class="cls-20" d="M226.93,510.65l.19-6.12"/><path class="cls-20" d="M226.76,538.41l.24-22.59"/><path class="cls-20" d="M233.19,510.37l.06-5.64"/><path class="cls-20" d="M232.4,538.47l.73-22.45"/><path class="cls-20" d="M84.52,435.65,87.85,433"/><path class="cls-27" d="M439.71,30.52l-71.43,1.31L318,33-1.46,37.36l-77.28.16"/><path class="cls-28" d="M-2.9-30l1.57,66.87,2.5,270L.84,320.71"/><path class="cls-28" d="M.8,340.78-.38,433.64-1.56,533.71l3,197.56,1.12,81.16"/><path class="cls-29" d="M-225.23,545.27-1.69,541.4l221.24-3h10.81l2,.06,212.8-2.29"/><path class="cls-30" d="M184.41,337.91l.18-16.94"/><path class="cls-30" d="M196.79,337.82l-7.69-.12"/><path class="cls-31" d="M1.32,320.84.94,340.3"/><path class="cls-32" d="M184.41,337.91l.18-16.94"/><path class="cls-32" d="M196.79,337.82l-7.69-.12"/><path class="cls-33" d="M1.32,320.84.94,340.3"/></g></svg>