<svg width="204" height="60" viewBox="0 0 204 60" fill="none" xmlns="http://www.w3.org/2000/svg">
<g filter="url(#filter0_d_20_322)">
<rect x="3" width="198" height="53" rx="26.5" fill="#93C0F2"/>
</g>
<path d="M55.984 19.872V22.296H76.312V19.872H67.552C67.216 18.576 66.904 17.4 66.568 16.344L63.64 16.824C64.048 17.784 64.408 18.792 64.744 19.872H55.984ZM55.168 34.848V37.272H77.128V34.848H69.832C71.176 31.68 72.304 28.056 73.216 24L70.552 23.28C69.496 27.888 68.296 31.728 66.928 34.848H55.168ZM61.744 23.232L59.104 24.12C60.208 27.456 61.096 30.936 61.816 34.536L64.528 33.864C63.712 29.88 62.8 26.328 61.744 23.232ZM82.168 23.952H86.92V26.52H82.168V23.952ZM86.92 21.72H82.168V19.296H86.92V21.72ZM79.528 37.848C82.648 37.08 85.456 36.192 87.928 35.184C88.312 35.904 88.648 36.624 88.984 37.344L90.928 35.976C90.136 34.296 89.008 32.328 87.544 30.072L85.648 31.272C86.032 31.872 86.392 32.472 86.752 33.096C85.36 33.624 83.848 34.152 82.168 34.632V28.848H89.272V17.04H79.72V34.176C79.72 34.776 79.36 35.208 78.664 35.448L79.528 37.848ZM97.312 35.232C99.088 35.232 100 34.32 100 32.496V17.088H91.624V38.448H94.12V19.44H97.504V31.92C97.504 32.568 97.144 32.904 96.472 32.904L94.816 32.808L95.488 35.232H97.312ZM104.776 26.592V38.52H107.248V22.704C108.16 20.952 108.928 19.128 109.504 17.208L107.248 16.152C106.144 20.088 104.416 23.496 102.112 26.424L102.88 28.92C103.552 28.152 104.176 27.384 104.776 26.592ZM108.832 20.04V22.44H112.888C111.76 26.472 110.008 29.808 107.608 32.424L108.904 34.584C111.592 31.512 113.56 27.624 114.76 22.896V31.44H111.544V33.84H114.76V38.52H117.232V33.84H120.544V31.44H117.232V22.872C118.312 27.072 120.184 30.888 122.824 34.296L124.456 32.232C121.936 29.352 120.136 26.088 119.08 22.44H123.496V20.04H117.232V16.248H114.76V20.04H108.832ZM137.584 23.976V25.272H144.472V23.88C145.192 24.648 146.008 25.368 146.92 26.088L148.288 24C145.408 21.792 143.368 19.224 142.192 16.296H139.984C138.568 19.488 136.552 22.08 133.912 24.072L135.232 26.088C136.048 25.464 136.84 24.768 137.584 23.976ZM143.728 23.016H138.424C139.408 21.768 140.296 20.352 141.088 18.744C141.76 20.28 142.624 21.696 143.728 23.016ZM134.608 35.352V37.752H147.952V35.352H144.664C145.552 32.88 146.296 30.072 146.92 26.952L144.52 26.328C143.872 29.856 143.128 32.856 142.312 35.352H134.608ZM137.392 27.024L135.256 27.768C136.024 29.832 136.672 32.016 137.2 34.296L139.336 33.792C138.76 31.248 138.112 28.992 137.392 27.024ZM141.088 26.28L138.952 26.976C139.576 28.992 140.104 31.104 140.512 33.288L142.648 32.784C142.192 30.336 141.664 28.152 141.088 26.28ZM131.68 19.416L130.672 27.048H128.536L129.448 20.808L127.168 20.688L126.04 29.256H132.064C132.064 32.496 131.944 34.44 131.728 35.112C131.512 35.76 130.888 36.096 129.856 36.096C129.52 36.096 128.944 36.024 128.104 35.904L128.776 38.112C129.328 38.16 129.856 38.208 130.384 38.208C132.016 38.208 133.096 37.752 133.6 36.888C134.104 36.024 134.368 32.736 134.368 27.048H133.024L134.152 17.16H126.136V19.416H131.68ZM131.152 30.72C129.544 31.248 127.672 31.68 125.536 32.016L125.848 34.368C127.816 34.008 129.592 33.528 131.152 32.952V30.72Z" fill="white"/>
<defs>
<filter id="filter0_d_20_322" x="0" y="0" width="204" height="60" filterUnits="userSpaceOnUse" color-interpolation-filters="sRGB">
<feFlood flood-opacity="0" result="BackgroundImageFix"/>
<feColorMatrix in="SourceAlpha" type="matrix" values="0 0 0 0 0 0 0 0 0 0 0 0 0 0 0 0 0 0 127 0" result="hardAlpha"/>
<feOffset dy="4"/>
<feGaussianBlur stdDeviation="1.5"/>
<feComposite in2="hardAlpha" operator="out"/>
<feColorMatrix type="matrix" values="0 0 0 0 0 0 0 0 0 0 0 0 0 0 0 0 0 0 0.25 0"/>
<feBlend mode="normal" in2="BackgroundImageFix" result="effect1_dropShadow_20_322"/>
<feBlend mode="normal" in="SourceGraphic" in2="effect1_dropShadow_20_322" result="shape"/>
</filter>
</defs>
</svg>
